# xmcd
#
# Track frame offsets: 
#        150
#        22305
#        43904
#        63391
#        86589
#        111236
#        132825
#        155832
#
# Disc length: 2319 seconds
#
# Revision: 0
# Processed by: cddbd v1.5.2PL0 Copyright (c) Steve Scherf et al.
# Submitted via: ExactAudioCopy v1.0b1
#
DISCID=72090d08
DTITLE=Mighty Fire - Mighty Fire
DYEAR=1982
DGENRE=Funk
TTITLE0=You Satisfy Me
TTITLE1=Just A Little Bit
TTITLE2=Sweet Lady
TTITLE3=Sixth Street (Turn It UP)
TTITLE4=Start It Up
TTITLE5=Heavy Rotation
TTITLE6=You Got Everything
TTITLE7=Nothing Can Sabotage My Love
EXTD=
EXTT0=
EXTT1=
EXTT2=
EXTT3=
EXTT4=
EXTT5=
EXTT6=
EXTT7=
PLAYORDER=
